<svg xmlns="http://www.w3.org/2000/svg" xmlns:xlink="http://www.w3.org/1999/xlink" width="216" height="171" viewBox="0 0 216 171">
    <defs>
        <path id="a" d="M.558 72.678c0-1.104.893-2 1.992-2h31.737c.553 0 1.322.318 1.718.711l6.48 6.43c.396.392 1.166.71 1.708.71h39.652c1.104 0 2 .898 2 2.003v56.183c0 1.106-.9 2.003-2.004 2.003H2.561a2.003 2.003 0 0 1-2.003-2v-64.04z"/>
        <path id="b" d="M0 0h41.624v19.927h19.767v59.875H0z"/>
        <path id="d" d="M4.722 8.42V1.584S4.368 0 2.892 0C1.418 0 .945 1.584.945 1.584V22.24l3.778-3.462V8.42z"/>
        <path id="e" d="M0 1.878h1v19.716H0z"/>
        <path id="f" d="M36.074 47.921l2.833 2.582v6.102l-2.833 2.582z"/>
        <path id="g" d="M12.462 48.038l3.778-2.933v18.278l-3.778-3.052z"/>
        <path id="h" d="M9.628 50.283l2.834-2.362v12.352l-2.834-2.171z"/>
        <path id="i" d="M41.618-.005L61.4 19.977l-19.82.01z"/>
        <path id="j" d="M13.564 88.466c.276-1.07 1.4-1.937 2.504-1.937h81.28c1.106 0 1.779.867 1.502 1.937l-12.407 47.966c-.277 1.07-1.401 1.937-2.504 1.937H2.659c-1.107 0-1.78-.867-1.502-1.937l12.407-47.966z"/>
        <path id="k" d="M0 0h41.391v19.927h20v59.875H0z"/>
        <path id="l" d="M41.37.021L61.124 20.56l-19.844-.472z"/>
        <path id="m" d="M6.139 33.762h47.578v10.743H6.139z"/>
        <path id="n" d="M42.974 49.109h10.743v24.554H42.974z"/>
        <path id="o" d="M6.139 49.109h33.765v24.554H6.139z"/>
        <path id="p" d="M0 0h41.391v19.927h20v59.875H0z"/>
    </defs>
    <g fill="none" fill-rule="evenodd">
        <g transform="rotate(-16 124.972 91.792)">
            <use fill="#4292B4" xlink:href="#a"/>
            <path stroke="#215366" d="M1.058 72.678c0-.828.67-1.5 1.492-1.5h31.737c.421 0 1.063.266 1.366.566l6.48 6.43c.487.483 1.384.856 2.06.856h39.652c.827 0 1.5.673 1.5 1.502v56.183c0 .83-.676 1.503-1.504 1.503H2.561c-.83 0-1.503-.673-1.503-1.5v-64.04z"/>
        </g>
        <g transform="rotate(6 -129.807 547.95)">
            <mask id="c" fill="#fff">
                <use xlink:href="#b"/>
            </mask>
            <use fill="#E9EBEB" xlink:href="#b"/>
            <path stroke="#215366" d="M.5.5h40.624v19.927h19.767v58.875H.5V.5z"/>
            <g mask="url(#c)" style="mix-blend-mode:multiply">
                <g transform="translate(3.073 3.758)">
                    <path fill="#979797" d="M.757 56.379l54.495-.188v15.938l-54.495.188z"/>
                    <path fill="#76787B" d="M5.496 56.37h36.245L25.569 70.38c-.833.721-2.202.733-3.05.033L5.495 56.37z"/>
                    <g transform="translate(31.352 40.41)">
                        <use fill="#BEBFC1" xlink:href="#d"/>
                        <path stroke="#76787B" stroke-width=".5" d="M4.472 18.667L1.194 21.67V1.584c.041-.1.164-.37.37-.64C1.898.506 2.333.25 2.893.25c.556 0 .964.252 1.262.684.184.267.286.535.323.705L4.472 8.42v10.247z"/>
                    </g>
                    <g transform="translate(31.352 40.41)">
                        <use fill="#76787B" xlink:href="#e"/>
                        <path stroke="#76787B" d="M.5 2.378h1v18.716h-1z"/>
                    </g>
                    <path fill="#FFF" stroke="#76787B" stroke-width=".5" d="M16.347 19.753V63.14l6.307 5.202s.7.585 1.44.585 1.402-.584 1.402-.584l6.346-5.63v-42.96l-7.064-9.05s-.189-.336-.71-.336a.89.89 0 0 0-.752.411l-6.97 8.975z"/>
                    <path fill="#D8D8D8" d="M16.611 20.204s5.138-6.765 6.667-8.898c-.08 13.987 0 57.211 0 57.211l-6.667-5.369V20.204z"/>
                    <path fill="#E9EBEB" d="M31.691 20.204s-5.137-6.765-6.666-8.898c.079 13.987 0 57.123 0 57.123l6.666-5.75V20.204z"/>
                    <g fill="#404041">
                        <path d="M18.596 29.228v-2.49l-.563.451v2.431zM21.488 27.118l.562-.392V23.86l-.562.45zM19.286 28.727v-2.564l-.562.45v2.507zM22.179 26.617l.506-.353V23.33l-.506.406zM20.668 27.726v-2.714l-.562.45v2.657zM19.977 28.227v-2.64l-.562.451v2.581zM21.36 27.226v-2.79l-.563.451v2.731zM17.905 27.314l-.563.45v2.357l.563-.393zM16.762 28.248v2.293l.448-.312v-2.34zM19.977 33.506v-2.64l-.562.334v2.58zM19.286 33.857v-2.565l-.562.333v2.506zM18.596 31.717l-.563.334v2.43l.563-.274zM22.685 32.132v-2.934l-.506.3v2.882zM20.797 33.08l.562-.274v-2.79l-.562.333zM21.488 32.73l.562-.275v-2.864l-.562.333zM16.762 32.833v2.293l.448-.218v-2.34zM17.905 32.143l-.563.333v2.356l.563-.275zM20.668 33.156v-2.715l-.562.334v2.656zM17.905 36.972l-.563.216v2.355l.563-.157zM20.106 38.743l.562-.157V35.87l-.562.216zM22.685 38v-2.933l-.506.194v2.881zM21.488 38.342l.562-.157V35.32l-.562.216zM20.797 38.542l.562-.157v-2.79l-.562.216zM16.831 37.391v2.3l.376-.104v-2.34zM19.977 38.786v-2.64l-.562.216v2.58zM18.596 36.697l-.563.215v2.431l.563-.157zM19.286 36.421l-.562.216v2.506l.562-.157zM18.596 41.676l-.563.098v2.43l.563-.039zM21.488 43.954l.562-.039V41.05l-.562.098zM19.286 41.55l-.562.099v2.506l.562-.04zM19.415 44.105l.562-.04v-2.64l-.562.099zM20.106 44.054l.562-.039V41.3l-.562.099zM20.797 44.004l.562-.039v-2.79l-.562.098zM17.905 41.8l-.563.099v2.356l.563-.04zM22.627 43.873v-2.928l-.448.078v2.881zM16.831 41.992v2.3l.376-.026v-2.34zM18.596 46.655l-.563-.02v2.431l.563.079zM20.797 49.466l.562.079v-2.79l-.562-.02zM19.415 46.685v2.581l.562.079v-2.64zM19.286 46.68l-.562-.02v2.506l.562.079zM17.905 46.63l-.563-.02v2.356l.563.078zM21.488 49.567l.562.078V46.78l-.562-.02zM16.831 46.592v2.3l.376.052v-2.339zM20.106 49.366l.562.079V46.73l-.562-.02zM22.627 49.73V46.8l-.448-.016v2.882zM21.488 55.179l.562.196V52.51l-.562-.137zM20.106 52.022v2.656l.562.196V52.16zM16.831 51.192v2.3l.376.131v-2.34zM17.905 51.459l-.563-.137v2.355l.563.197zM20.797 54.929l.562.196v-2.79l-.562-.138zM19.415 51.847v2.581l.562.196v-2.64zM22.627 55.585v-2.928l-.448-.11v2.882zM18.596 51.634l-.563-.137v2.43l.563.197zM18.724 51.672v2.506l.562.196v-2.565zM22.591 61.421v-2.924l-.412-.187v2.881zM21.488 60.791l.562.314V58.24l-.562-.255zM17.905 56.288l-.563-.255v2.356l.563.314zM16.784 55.77v2.295l.425.237v-2.34zM18.033 56.358v2.431l.563.314v-2.49zM18.724 56.684v2.505l.562.314V56.94zM20.797 57.66v2.73l.562.314v-2.79zM19.415 57.009v2.58l.562.315v-2.64zM20.106 57.334v2.656l.562.314V57.59zM19.415 62.17v2.582l.562.431v-2.64zM20.797 63.122v2.73l.562.432v-2.79zM16.784 60.36v2.296l.425.325v-2.34zM18.033 61.22v2.43l.563.432v-2.49zM18.724 61.695v2.506l.562.432v-2.565zM17.342 60.744V63.1l.563.432v-2.415zM20.106 62.646v2.656l.562.432v-2.715zM21.488 63.597v2.806l.562.432V63.97zM22.591 67.27v-2.924l-.412-.274v2.882zM25.42 23.188v2.935l.546.391v-2.876zM26.658 24.229l-.562-.463v2.86l.562.402zM30.241 29.707l.562.403v-2.337l-.562-.463zM30.112 29.596v-2.414l-.562-.463v2.475zM28.73 28.569V26l-.562-.463v2.628zM27.349 27.542v-2.723l-.562-.463v2.783zM31.478 30.612V28.35l-.546-.45v2.32zM29.421 29.083V26.59l-.562-.463v2.552zM28.04 28.055V25.41l-.563-.463v2.706zM27.349 30.264l-.562-.342v2.782l.562.282zM28.04 33.346V30.7l-.563-.343v2.706zM28.73 33.705v-2.568l-.562-.342v2.628zM25.42 29.058v2.935l.546.274v-2.876zM29.55 34.142l.562.282V32.01l-.562-.342zM29.421 34.065v-2.491l-.562-.343v2.552zM26.658 29.827l-.562-.342v2.86l.562.282zM31.478 35.135v-2.261l-.546-.333v2.32zM30.241 34.502l.562.282v-2.337l-.562-.342zM30.241 39.297l.562.16v-2.336l-.562-.222zM28.86 38.886l.561.161v-2.491l-.562-.222zM25.42 34.928v2.935l.546.157v-2.877zM28.73 38.842v-2.569l-.562-.221v2.629zM31.478 39.659v-2.262l-.546-.215v2.32zM29.55 39.091l.562.161v-2.414l-.562-.221zM26.658 35.426l-.562-.221v2.86l.562.16zM28.04 35.99l-.563-.22v2.705l.563.161zM27.349 35.708l-.562-.22v2.782l.562.16zM28.86 43.989l.561.04v-2.466l-.562-.1zM26.658 41.053l-.562-.1v2.83l.562.04zM27.349 41.18l-.562-.1v2.755l.562.04zM29.55 44.04l.562.04v-2.39l-.562-.1zM30.241 44.092l.562.04v-2.314l-.562-.1zM28.04 41.308l-.563-.1v2.678l.563.04zM28.168 43.938l.563.04v-2.542l-.563-.1zM31.478 44.182v-2.239l-.546-.097v2.297zM25.42 40.828v2.905l.546.04v-2.848zM30.241 48.887l.562-.081v-2.337l-.562.02zM28.168 46.566v2.629l.563-.08v-2.569zM25.42 46.668v2.935l.546-.078V46.65zM28.86 49.092l.561-.08V46.52l-.562.02zM28.04 46.572l-.563.02v2.705l.563-.08zM31.478 48.706v-2.262l-.546.02v2.32zM29.55 48.99l.562-.081v-2.414l-.562.02zM27.349 46.597l-.562.02V49.4l.562-.08zM26.658 46.623l-.562.02v2.86l.562-.08zM25.42 52.538v2.935l.546-.195V52.4zM29.55 53.938l.562-.201v-2.414l-.562.14zM26.658 52.222l-.562.14v2.86l.562-.201zM31.478 53.229v-2.262l-.546.137v2.32zM27.349 52.042l-.562.14v2.783l.562-.2zM28.168 51.823v2.629l.563-.201v-2.569zM27.477 52.003v2.706l.563-.202v-2.645zM28.86 51.644v2.551l.561-.201v-2.491zM30.241 53.681l.562-.2v-2.338l-.562.141zM26.658 57.82l-.562.262v2.86l.562-.322zM29.55 56.413v2.474l.562-.322v-2.414zM26.787 57.748v2.783l.562-.322v-2.723zM28.86 56.747v2.551l.561-.322v-2.491zM30.241 58.476l.562-.322v-2.337l-.562.262zM28.168 57.08v2.629l.563-.322v-2.568zM27.477 57.414v2.706l.563-.322v-2.645zM31.478 57.752v-2.261l-.546.254v2.32zM25.42 58.408v2.935l.546-.313v-2.876zM27.477 62.825v2.706l.563-.443v-2.645zM28.168 62.338v2.628l.563-.443v-2.568zM28.86 61.85V64.4l.561-.443v-2.49zM26.787 63.313v2.783l.562-.443v-2.722zM25.42 64.278v2.935l.546-.43v-2.876zM26.096 63.801v2.86l.562-.443v-2.8zM29.55 61.362v2.474l.562-.443V60.98zM30.241 60.874v2.397l.562-.443v-2.337zM31.478 62.276v-2.262l-.546.372v2.32z"/>
                    </g>
                    <path stroke="#57585A" d="M15.485 19.824l7.81-9.86s.173-.234.742-.234c.309 0 .556.014.743.234 1.903 2.241 7.837 9.998 7.837 9.998"/>
                    <path d="M15.41 19.686l7.855-9.873s.183-.234.785-.234c.327 0 .588.014.785.234 2.012 2.241 7.875 10.024 7.875 10.024"/>
                    <path fill="#A6A9AB" d="M32.367 20.185c-.046.03-.1.02-.137-.027-.63-.8-5.91-7.563-7.61-9.682-.146-.181-.28-.19-.572-.19-.412 0-.554.145-.575.17l-7.645 9.664-.043-.019a.606.606 0 0 1-.208-.149l-.029-.03 7.701-9.733c.053-.078.254-.305.8-.303.287 0 .536 0 .774.295 1.802 2.246 7.691 9.791 7.75 9.866l-.206.138z"/>
                    <path d="M32.367 20.185c-.046.03-.1.02-.137-.027-.63-.8-5.91-7.563-7.61-9.682-.146-.181-.28-.19-.572-.19-.412 0-.554.145-.575.17l-7.645 9.664-.043-.019a.606.606 0 0 1-.208-.149l-.029-.03 7.701-9.733c.053-.078.254-.305.8-.303.287 0 .536 0 .774.295 1.802 2.246 7.691 9.791 7.75 9.866l-.206.138z"/>
                    <path fill="#221F20" d="M31.885 22.231l-7.14-8.584-.094-.049a1.29 1.29 0 0 0-1.227.003l-.068.035-7.075 8.402V21.9l7.036-8.35.08-.042a1.348 1.348 0 0 1 1.28-.003l.113.062 7.098 8.526-.003.138zM31.885 54.135l-7.14 3.195-.094.019a3.286 3.286 0 0 1-1.227-.001l-.068-.013-7.075-3.128v.052l7.036 3.108.08.016c.412.08.867.08 1.28 0l.113-.022 7.098-3.174-.003-.052z"/>
                    <path fill="#404041" d="M20.794 22.969l.542-.524v-4.97l-.542.632v4.862zm.691-.669l.543-.524V16.67l-.543.632v5zm-1.383 1.337l.542-.524V18.28l-.542.632v4.724zm-2.909-1.334l-.414.483v4.062l.414-.4v-4.145zm2.218 2.002l.542-.524v-4.694l-.542.632v4.586zm2.766-7.81v5.137l.416-.402v-5.22l-.416.485zm-4.15 9.147l.543-.524v-4.419l-.542.632v4.31zm.692-.669l.542-.523v-4.557l-.542.632v4.448zm-1.376-2.842v4.173l.535-.518v-4.28l-.537.625h.002z"/>
                    <path fill="#6C6E70" d="M24.504 20.985l-.915-.007v-5.254l.915.025zM24.504 25.73l-.915-.008v-2.994l.915.025zM24.622 31.769l-.915-.008v-2.993l.915.025zM24.504 37.774l-.915-.007v-2.994l.915.025zM24.504 43.372l-.915-.007V40.37l.915.025zM24.504 49.858l-.915-.007v-2.994l.915.025zM24.504 55.875l-.915-.008v-2.994l.915.025zM24.504 62.098l-.915-.008v-3.115l.915.026zM24.504 67.904l-.915-.008v-3.13l.915.026z"/>
                    <path fill="#404041" d="M27.182 17.836l-.542-.632v4.97l.542.523v-4.861zm-.692-.806l-.542-.632v5.107l.542.524v-5zm1.383 1.612l-.542-.632v4.832l.542.524v-4.724zm2.91 7.535l.414.4v-4.062l-.414-.483v4.145zm-2.218-6.73l-.542-.631v4.694l.542.524v-4.586zm-3.182-3.708v5.22l.416.402v-5.137l-.416-.485zm4.565 5.32l-.542-.631v4.419l.542.524V21.06zm-.692-.805l-.542-.632v4.556l.542.524v-4.448zm1.379 1.606l-.538-.626v4.28l.536.519V21.86h.002z"/>
                    <path fill="#5A5B5E" d="M16.28 20.427s-.081.03-.264-.046c-.183-.077-.183-.246-.183-.246l7.675-9.723s.206-.154.538-.154c.332 0 .583.2.583.2l7.675 9.784s-.068.077-.194.123-.275.108-.275.108l-7.24-9.078s-.16-.154-.526-.154-.56.215-.56.215l-7.23 8.97z"/>
                    <ellipse cx="4.434" cy="59.657" fill="#1A7B72" rx="1.417" ry="1.408"/>
                    <ellipse cx="47.408" cy="42.288" fill="#97D0E9" rx="1" ry="1"/>
                    <ellipse cx="37.019" cy="32.9" fill="#37C2AA" rx="1" ry="1"/>
                    <ellipse cx="40.796" cy="52.615" fill="#D8D8D8" rx="1" ry="1"/>
                    <ellipse cx="12.934" cy="33.369" fill="#D8D8D8" rx="1" ry="1"/>
                    <ellipse cx="6.323" cy="18.347" fill="#37C2AA" rx="1" ry="1"/>
                    <ellipse cx="31.824" cy="8.959" fill="#D8D8D8" rx="1" ry="1"/>
                    <g>
                        <use fill="#BEBFC1" xlink:href="#f"/>
                        <path stroke="#76787B" stroke-width=".5" d="M36.324 48.487l2.333 2.126v5.882l-2.333 2.126V48.487z"/>
                    </g>
                    <g>
                        <use fill="#BEBFC1" xlink:href="#g"/>
                        <path stroke="#76787B" stroke-width=".5" d="M12.712 48.16l3.278-2.545V62.86l-3.278-2.647V48.161z"/>
                    </g>
                    <g>
                        <use fill="#9B9B9B" xlink:href="#h"/>
                        <path stroke="#76787B" stroke-width=".5" d="M9.878 50.4l2.334-1.945v11.311l-2.334-1.788V50.4z"/>
                    </g>
                    <ellipse cx="11.99" cy="54.962" fill="#34B3A0" rx="1" ry="1"/>
                    <ellipse cx="36.074" cy="56.371" fill="#37C2AA" rx="1" ry="1"/>
                    <ellipse cx="6.729" cy="6.382" fill="#A7BBC6" rx="1" ry="1"/>
                    <ellipse cx="49.362" cy="26.757" fill="#A7BBC6" rx="1" ry="1"/>
                    <ellipse cx="3.319" cy="31.851" fill="#A7BBC6" rx="1" ry="1"/>
                    <ellipse cx="51.068" cy="50.528" fill="#A7BBC6" rx="1" ry="1"/>
                    <ellipse cx="23.783" cy="1.288" fill="#37C2AA" rx="1" ry="1"/>
                </g>
            </g>
            <g>
                <use fill="#215366" xlink:href="#i"/>
                <path stroke="#215366" d="M42.116 1.208l18.086 18.27-18.121.009.035-18.279z"/>
            </g>
        </g>
        <g transform="rotate(-16 124.972 91.792)">
            <use fill="#97D0E9" xlink:href="#j"/>
            <path stroke="#215366" d="M14.048 88.591c.22-.848 1.144-1.562 2.02-1.562h81.28c.78 0 1.213.558 1.018 1.312l-12.407 47.965c-.22.849-1.144 1.563-2.02 1.563H2.659c-.78 0-1.213-.559-1.018-1.312L14.048 88.59z"/>
        </g>
        <path fill="#88E3D2" stroke="#1A7B72" d="M82.674 163.037s-1.798-15.204 7.708-28.211c9.507-13.008 21.708-15.415 21.708-15.415l-2.962-11.47 24.993 12.363-15.422 23.623-3.452-12.733s-7.123 1.164-17.136 9.505c-10.014 8.341-15.437 22.338-15.437 22.338z"/>
        <g transform="rotate(19 59.959 361.233)">
            <use fill="#F1F2F3" xlink:href="#k"/>
            <path stroke="#215366" d="M.5.5h40.391v19.927h20v58.875H.5V.5z"/>
        </g>
        <g transform="rotate(19 59.959 361.233)">
            <use fill="#215366" xlink:href="#l"/>
            <path stroke="#215366" d="M41.864 1.257L59.921 20.03l-18.139-.43.082-18.343z"/>
        </g>
        <path fill="#37C2AA" fill-rule="nonzero" d="M132.91 29.03a1.847 1.847 0 0 0-1.238-1.78l-.87-.299.899-2.612a.92.92 0 0 0-.571-1.17l-5.224-1.8.6-1.74 1.74.6a.92.92 0 0 0 1.171-.572l.6-1.74 1.741.599c.962.331 2.01-.18 2.341-1.142l.123-.357a7.352 7.352 0 0 1-1.312 12.014zm-6.77.143a7.356 7.356 0 0 1-3.717-9.002 7.41 7.41 0 0 1 .72-1.496l2.734 5.607-.3.87c-.33.962.18 2.01 1.142 2.341l-.578 1.68zm6.246-15.31a9.208 9.208 0 1 0-5.996 17.413 9.208 9.208 0 0 0 5.996-17.413z"/>
        <g transform="rotate(19 59.959 361.233)">
            <use fill="#D8D8D8" xlink:href="#m"/>
            <path stroke="#BEBFC1" d="M6.639 34.262h46.578v9.743H6.639z"/>
        </g>
        <g transform="rotate(19 59.959 361.233)">
            <use fill="#D8D8D8" xlink:href="#n"/>
            <path stroke="#BEBFC1" d="M43.474 49.609h9.743v23.554h-9.743z"/>
        </g>
        <g transform="rotate(19 59.959 361.233)">
            <use fill="#D8D8D8" xlink:href="#o"/>
            <path stroke="#BEBFC1" d="M6.639 49.609h32.765v23.554H6.639z"/>
        </g>
        <g>
            <g transform="rotate(39 71.732 260.475)">
                <use fill="#F1F2F3" xlink:href="#p"/>
                <path stroke="#215366" d="M.5.5h40.391v19.927h20v58.875H.5V.5z"/>
            </g>
            <path fill="#215366" d="M212.064 38.95l3.004 28.086-15.551-12.59z"/>
            <path stroke="#A9AAAD" stroke-linecap="square" d="M168.828 42.44l31.012 25.113M165.93 46.019l31.012 25.112M163.034 49.596l31.011 25.113M160.136 53.174l31.012 25.113M157.239 56.752l31.011 25.113M154.341 60.33l31.012 25.113M151.444 63.908l31.012 25.113M148.547 67.486L179.558 92.6"/>
            <text fill="#39D1B4" font-family="RobotoMono-Bold, Roboto Mono" font-size="11" font-weight="bold" transform="rotate(39 71.732 260.475)">
                <tspan x="11.585" y="16.604">&lt;/&gt;</tspan>
            </text>
        </g>
        <path stroke="#FBB03B" d="M33 101.038s.863-4.967 3.837-9.187S43.36 86 43.36 86M25 108.348s.767-7.769 3.645-13.428c2.878-5.659 7.098-8.92 7.098-8.92"/>
    </g>
</svg>
